{
    "asset" : {
        "generator" : "Khronos glTF Blender I/O v3.4.49",
        "version" : "2.0"
    },
    "scene" : 0,
    "scenes" : [
        {
            "name" : "Scene",
            "nodes" : [
                0,
                1,
                2
            ]
        }
    ],
    "nodes" : [
        {
            "camera" : 0,
            "name" : "Cam_Side",
            "rotation" : [
                -0.1499706506729126,
                -0.21084970235824585,
                -0.03275555372238159,
                0.9653902053833008
            ],
            "translation" : [
                -21.462417602539062,
                15.256155014038086,
                45.43830490112305
            ]
        },
        {
            "mesh" : 0,
            "name" : "singleGround",
            "rotation" : [
                0.7071068286895752,
                0,
                0,
                0.7071068286895752
            ],
            "scale" : [
                0.009999999776482582,
                0.009999999776482582,
                0.009999999776482582
            ]
        },
        {
            "mesh" : 1,
            "name" : "singleCar",
            "rotation" : [
                0.7071068286895752,
                0,
                0,
                0.7071068286895752
            ],
            "scale" : [
                0.009999999776482582,
                0.009999999776482582,
                0.009999999776482582
            ]
        }
    ],
    "cameras" : [
        {
            "name" : "\u6444\u50cf\u673a",
            "perspective" : {
                "aspectRatio" : 1.3333333333333333,
                "yfov" : 0.3343500156284748,
                "zfar" : 1000,
                "znear" : 0.10000000149011612
            },
            "type" : "perspective"
        }
    ],
    "meshes" : [
        {
            "name" : "singleGround",
            "primitives" : [
                {
                    "attributes" : {
                        "POSITION" : 0,
                        "TEXCOORD_0" : 1,
                        "NORMAL" : 2
                    },
                    "indices" : 3
                }
            ]
        },
        {
            "name" : "singleCar",
            "primitives" : [
                {
                    "attributes" : {
                        "POSITION" : 4,
                        "TEXCOORD_0" : 5,
                        "NORMAL" : 6
                    },
                    "indices" : 7
                }
            ]
        }
    ],
    "accessors" : [
        {
            "bufferView" : 0,
            "componentType" : 5126,
            "count" : 289,
            "max" : [
                163.67840576171875,
                263.1315002441406,
                -0.172607421875
            ],
            "min" : [
                -159.24813842773438,
                -261.3123779296875,
                -0.172607421875
            ],
            "type" : "VEC3"
        },
        {
            "bufferView" : 1,
            "componentType" : 5126,
            "count" : 289,
            "type" : "VEC2"
        },
        {
            "bufferView" : 2,
            "componentType" : 5126,
            "count" : 289,
            "type" : "VEC3"
        },
        {
            "bufferView" : 3,
            "componentType" : 5123,
            "count" : 1536,
            "type" : "SCALAR"
        },
        {
            "bufferView" : 4,
            "componentType" : 5126,
            "count" : 25468,
            "max" : [
                163.67837524414062,
                261.3834228515625,
                1.0220208168029785
            ],
            "min" : [
                -159.2481689453125,
                -263.0604248046875,
                -104.56434631347656
            ],
            "type" : "VEC3"
        },
        {
            "bufferView" : 5,
            "componentType" : 5126,
            "count" : 25468,
            "type" : "VEC2"
        },
        {
            "bufferView" : 6,
            "componentType" : 5126,
            "count" : 25468,
            "type" : "VEC3"
        },
        {
            "bufferView" : 7,
            "componentType" : 5123,
            "count" : 129786,
            "type" : "SCALAR"
        }
    ],
    "bufferViews" : [
        {
            "buffer" : 0,
            "byteLength" : 3468,
            "byteOffset" : 0,
            "target" : 34962
        },
        {
            "buffer" : 0,
            "byteLength" : 2312,
            "byteOffset" : 3468,
            "target" : 34962
        },
        {
            "buffer" : 0,
            "byteLength" : 3468,
            "byteOffset" : 5780,
            "target" : 34962
        },
        {
            "buffer" : 0,
            "byteLength" : 3072,
            "byteOffset" : 9248,
            "target" : 34963
        },
        {
            "buffer" : 0,
            "byteLength" : 305616,
            "byteOffset" : 12320,
            "target" : 34962
        },
        {
            "buffer" : 0,
            "byteLength" : 203744,
            "byteOffset" : 317936,
            "target" : 34962
        },
        {
            "buffer" : 0,
            "byteLength" : 305616,
            "byteOffset" : 521680,
            "target" : 34962
        },
        {
            "buffer" : 0,
            "byteLength" : 259572,
            "byteOffset" : 827296,
            "target" : 34963
        }
    ],
    "buffers" : [
        {
            "byteLength" : 1086868,
            "uri" : "data:application/octet-stream;base64,"
        }
    ]
}
