{
    "asset" : {
        "generator" : "Khronos glTF Blender I/O v3.4.49",
        "version" : "2.0"
    },
    "scene" : 0,
    "scenes" : [
        {
            "name" : "Scene",
            "nodes" : [
                0,
                1,
                4
            ]
        }
    ],
    "nodes" : [
        {
            "name" : "Head Light",
            "rotation" : [
                -0.7071068286895752,
                0,
                0,
                0.7071068286895752
            ],
            "translation" : [
                0,
                1.864062786102295,
                0
            ]
        },
        {
            "camera" : 0,
            "name" : "Cam_Side",
            "rotation" : [
                -0.005469899624586105,
                0.6855418086051941,
                0.005151142831891775,
                0.7279945015907288
            ],
            "translation" : [
                5.2808990478515625,
                0.639906108379364,
                1.3422883749008179
            ]
        },
        {
            "mesh" : 0,
            "name" : "Body",
            "rotation" : [
                -0.705281138420105,
                -0.003602380398660898,
                -0.01599840819835663,
                0.7087380290031433
            ],
            "scale" : [
                99.99999237060547,
                100.00000762939453,
                99.99999237060547
            ],
            "translation" : [
                -2.0939459800720215,
                -0.2663092613220215,
                -53.25843811035156
            ]
        },
        {
            "mesh" : 1,
            "name" : "Tire_Vent",
            "translation" : [
                0,
                0,
                -1.282955288887024
            ]
        },
        {
            "children" : [
                2,
                3
            ],
            "name" : "AlfaRomeo33",
            "rotation" : [
                0.7070378661155701,
                0,
                0,
                0.7071757316589355
            ],
            "scale" : [
                0.009999999776482582,
                0.009999999776482582,
                0.009999999776482582
            ]
        }
    ],
    "cameras" : [
        {
            "name" : "\u6444\u50cf\u673a",
            "perspective" : {
                "aspectRatio" : 1.3333333333333333,
                "yfov" : 0.3343500156284748,
                "zfar" : 1000,
                "znear" : 0.10000000149011612
            },
            "type" : "perspective"
        }
    ],
    "materials" : [
        {
            "doubleSided" : true,
            "name" : "Curve_Black",
            "pbrMetallicRoughness" : {
                "baseColorFactor" : [
                    0.016525935381650925,
                    0.016525935381650925,
                    0.016525935381650925,
                    1
                ],
                "roughnessFactor" : 0.24772727489471436
            }
        },
        {
            "doubleSided" : true,
            "name" : "Black",
            "pbrMetallicRoughness" : {
                "baseColorFactor" : [
                    0,
                    0,
                    0,
                    1
                ],
                "metallicFactor" : 0,
                "roughnessFactor" : 0.5
            }
        }
    ],
    "meshes" : [
        {
            "name" : "\u7f51\u683c.007",
            "primitives" : [
                {
                    "attributes" : {
                        "POSITION" : 0,
                        "TEXCOORD_0" : 1,
                        "NORMAL" : 2
                    },
                    "indices" : 3,
                    "material" : 0
                },
                {
                    "attributes" : {
                        "POSITION" : 4,
                        "TEXCOORD_0" : 5,
                        "NORMAL" : 6
                    },
                    "indices" : 7,
                    "material" : 0
                }
            ]
        },
        {
            "name" : "\u7f51\u683c.010",
            "primitives" : [
                {
                    "attributes" : {
                        "POSITION" : 8,
                        "TEXCOORD_0" : 9,
                        "NORMAL" : 10
                    },
                    "indices" : 11,
                    "material" : 1
                }
            ]
        }
    ],
    "accessors" : [
        {
            "bufferView" : 0,
            "componentType" : 5126,
            "count" : 24214,
            "max" : [
                0.9593265056610107,
                0.5023155808448792,
                1.9975838661193848
            ],
            "min" : [
                -0.8826463222503662,
                -0.42380428314208984,
                -1.9544966220855713
            ],
            "type" : "VEC3"
        },
        {
            "bufferView" : 1,
            "componentType" : 5126,
            "count" : 24214,
            "type" : "VEC2"
        },
        {
            "bufferView" : 2,
            "componentType" : 5126,
            "count" : 24214,
            "type" : "VEC3"
        },
        {
            "bufferView" : 3,
            "componentType" : 5123,
            "count" : 113220,
            "type" : "SCALAR"
        },
        {
            "bufferView" : 4,
            "componentType" : 5126,
            "count" : 244,
            "max" : [
                0.837516188621521,
                0.2505395710468292,
                0.5814692378044128
            ],
            "min" : [
                0.6335882544517517,
                -0.254573792219162,
                -0.4486995339393616
            ],
            "type" : "VEC3"
        },
        {
            "bufferView" : 5,
            "componentType" : 5126,
            "count" : 244,
            "type" : "VEC2"
        },
        {
            "bufferView" : 6,
            "componentType" : 5126,
            "count" : 244,
            "type" : "VEC3"
        },
        {
            "bufferView" : 7,
            "componentType" : 5123,
            "count" : 1026,
            "type" : "SCALAR"
        },
        {
            "bufferView" : 8,
            "componentType" : 5126,
            "count" : 2776,
            "max" : [
                89.73513793945312,
                190.35574340820312,
                3.482145309448242
            ],
            "min" : [
                -89.73799896240234,
                -185.6787109375,
                -70.54219055175781
            ],
            "type" : "VEC3"
        },
        {
            "bufferView" : 9,
            "componentType" : 5126,
            "count" : 2776,
            "type" : "VEC2"
        },
        {
            "bufferView" : 10,
            "componentType" : 5126,
            "count" : 2776,
            "type" : "VEC3"
        },
        {
            "bufferView" : 11,
            "componentType" : 5123,
            "count" : 14004,
            "type" : "SCALAR"
        }
    ],
    "bufferViews" : [
        {
            "buffer" : 0,
            "byteLength" : 290568,
            "byteOffset" : 0,
            "target" : 34962
        },
        {
            "buffer" : 0,
            "byteLength" : 193712,
            "byteOffset" : 290568,
            "target" : 34962
        },
        {
            "buffer" : 0,
            "byteLength" : 290568,
            "byteOffset" : 484280,
            "target" : 34962
        },
        {
            "buffer" : 0,
            "byteLength" : 226440,
            "byteOffset" : 774848,
            "target" : 34963
        },
        {
            "buffer" : 0,
            "byteLength" : 2928,
            "byteOffset" : 1001288,
            "target" : 34962
        },
        {
            "buffer" : 0,
            "byteLength" : 1952,
            "byteOffset" : 1004216,
            "target" : 34962
        },
        {
            "buffer" : 0,
            "byteLength" : 2928,
            "byteOffset" : 1006168,
            "target" : 34962
        },
        {
            "buffer" : 0,
            "byteLength" : 2052,
            "byteOffset" : 1009096,
            "target" : 34963
        },
        {
            "buffer" : 0,
            "byteLength" : 33312,
            "byteOffset" : 1011148,
            "target" : 34962
        },
        {
            "buffer" : 0,
            "byteLength" : 22208,
            "byteOffset" : 1044460,
            "target" : 34962
        },
        {
            "buffer" : 0,
            "byteLength" : 33312,
            "byteOffset" : 1066668,
            "target" : 34962
        },
        {
            "buffer" : 0,
            "byteLength" : 28008,
            "byteOffset" : 1099980,
            "target" : 34963
        }
    ],
    "buffers" : [
        {
            "byteLength" : 1127988,
            "uri" : "data:application/octet-stream;base64,"
        }
    ]
}
