{
    "asset" : {
        "generator" : "Khronos glTF Blender I/O v3.4.49",
        "version" : "2.0"
    },
    "scene" : 0,
    "scenes" : [
        {
            "name" : "Scene",
            "nodes" : [
                7,
                8
            ]
        }
    ],
    "nodes" : [
        {
            "mesh" : 0,
            "name" : "Car_Body_Still",
            "translation" : [
                0.0012360340915620327,
                195.7799835205078,
                -24.792984008789062
            ]
        },
        {
            "mesh" : 1,
            "name" : "Body_doors",
            "rotation" : [
                -0.6971526145935059,
                0.3575516641139984,
                -0.11822989583015442,
                0.6100465059280396
            ],
            "scale" : [
                99.99999237060547,
                100.00000762939453,
                100.00000762939453
            ],
            "translation" : [
                12.24553108215332,
                7.119750499725342,
                47.5455207824707
            ]
        },
        {
            "mesh" : 2,
            "name" : "Glass_doors_01",
            "rotation" : [
                -0.6971526145935059,
                0.3575516641139984,
                -0.11822989583015442,
                0.6100465059280396
            ],
            "scale" : [
                99.99999237060547,
                100.00000762939453,
                100.00000762939453
            ],
            "translation" : [
                -12.54862117767334,
                -4.469102382659912,
                14.428544998168945
            ]
        },
        {
            "children" : [
                1,
                2
            ],
            "name" : "Door_Left",
            "rotation" : [
                0.06159316748380661,
                -0.1692260056734085,
                0.3364284038543701,
                0.9243293404579163
            ],
            "translation" : [
                9.477381706237793,
                -1.873328447341919,
                -102.290283203125
            ]
        },
        {
            "mesh" : 3,
            "name" : "Body_doors_2",
            "rotation" : [
                -0.6979247331619263,
                -0.3616073429584503,
                0.11358342319726944,
                0.6076512932777405
            ],
            "scale" : [
                100,
                100.00000762939453,
                100
            ],
            "translation" : [
                -12.8778657913208,
                7.119753360748291,
                47.37815475463867
            ]
        },
        {
            "mesh" : 4,
            "name" : "Glass_doors_01_2",
            "rotation" : [
                -0.6979247331619263,
                -0.3616073429584503,
                0.11358342319726944,
                0.6076512932777405
            ],
            "scale" : [
                100,
                100.00000762939453,
                100
            ],
            "translation" : [
                11.564069747924805,
                -5.182722568511963,
                14.282564163208008
            ]
        },
        {
            "children" : [
                4,
                5
            ],
            "name" : "Door_Right",
            "rotation" : [
                0.06383293867111206,
                0.1753794550895691,
                -0.3360106945037842,
                0.9231815934181213
            ],
            "translation" : [
                9.477381706237793,
                -1.873328447341919,
                -102.290283203125
            ]
        },
        {
            "children" : [
                0,
                3,
                6
            ],
            "name" : "AlfaRomeo33",
            "rotation" : [
                0.7070378661155701,
                0,
                0,
                0.7071757316589355
            ],
            "scale" : [
                0.009999999776482582,
                0.009999999776482582,
                0.009999999776482582
            ]
        },
        {
            "camera" : 0,
            "name" : "Cam_Front",
            "rotation" : [
                -0.017426563426852226,
                0.24661552906036377,
                0.004434308037161827,
                0.9689465761184692
            ],
            "translation" : [
                2.884721517562866,
                0.8202241063117981,
                5.764088153839111
            ]
        }
    ],
    "cameras" : [
        {
            "name" : "\u6444\u50cf\u673a.001",
            "perspective" : {
                "aspectRatio" : 1.7777777777777777,
                "yfov" : 0.29777991771698,
                "zfar" : 1000,
                "znear" : 0.10000000149011612
            },
            "type" : "perspective"
        }
    ],
    "animations" : [
        {
            "channels" : [
                {
                    "sampler" : 0,
                    "target" : {
                        "node" : 3,
                        "path" : "translation"
                    }
                },
                {
                    "sampler" : 1,
                    "target" : {
                        "node" : 3,
                        "path" : "rotation"
                    }
                }
            ],
            "name" : "Door_Left_Close",
            "samplers" : [
                {
                    "input" : 20,
                    "interpolation" : "STEP",
                    "output" : 21
                },
                {
                    "input" : 22,
                    "interpolation" : "LINEAR",
                    "output" : 23
                }
            ]
        },
        {
            "channels" : [
                {
                    "sampler" : 0,
                    "target" : {
                        "node" : 3,
                        "path" : "rotation"
                    }
                }
            ],
            "name" : "Door_Left_Open",
            "samplers" : [
                {
                    "input" : 24,
                    "interpolation" : "LINEAR",
                    "output" : 25
                }
            ]
        },
        {
            "channels" : [
                {
                    "sampler" : 0,
                    "target" : {
                        "node" : 6,
                        "path" : "rotation"
                    }
                }
            ],
            "name" : "Door_Right_Close",
            "samplers" : [
                {
                    "input" : 22,
                    "interpolation" : "LINEAR",
                    "output" : 26
                }
            ]
        },
        {
            "channels" : [
                {
                    "sampler" : 0,
                    "target" : {
                        "node" : 6,
                        "path" : "rotation"
                    }
                }
            ],
            "name" : "Door_Right_Open",
            "samplers" : [
                {
                    "input" : 24,
                    "interpolation" : "LINEAR",
                    "output" : 27
                }
            ]
        }
    ],
    "meshes" : [
        {
            "name" : "\u7f51\u683c",
            "primitives" : [
                {
                    "attributes" : {
                        "POSITION" : 0,
                        "TEXCOORD_0" : 1,
                        "NORMAL" : 2
                    },
                    "indices" : 3
                }
            ]
        },
        {
            "name" : "\u7f51\u683c.005",
            "primitives" : [
                {
                    "attributes" : {
                        "POSITION" : 4,
                        "TEXCOORD_0" : 5,
                        "NORMAL" : 6
                    },
                    "indices" : 7
                }
            ]
        },
        {
            "name" : "\u7f51\u683c.004",
            "primitives" : [
                {
                    "attributes" : {
                        "POSITION" : 8,
                        "TEXCOORD_0" : 9,
                        "NORMAL" : 10
                    },
                    "indices" : 11
                }
            ]
        },
        {
            "name" : "\u7f51\u683c.007",
            "primitives" : [
                {
                    "attributes" : {
                        "POSITION" : 12,
                        "TEXCOORD_0" : 13,
                        "NORMAL" : 14
                    },
                    "indices" : 15
                }
            ]
        },
        {
            "name" : "\u7f51\u683c.006",
            "primitives" : [
                {
                    "attributes" : {
                        "POSITION" : 16,
                        "TEXCOORD_0" : 17,
                        "NORMAL" : 18
                    },
                    "indices" : 19
                }
            ]
        }
    ],
    "accessors" : [
        {
            "bufferView" : 0,
            "componentType" : 5126,
            "count" : 22654,
            "max" : [
                92.29671478271484,
                3.583430528640747,
                26.99217414855957
            ],
            "min" : [
                -91.99839782714844,
                -391.4422607421875,
                -78.59416961669922
            ],
            "type" : "VEC3"
        },
        {
            "bufferView" : 1,
            "componentType" : 5126,
            "count" : 22654,
            "type" : "VEC2"
        },
        {
            "bufferView" : 2,
            "componentType" : 5126,
            "count" : 22654,
            "type" : "VEC3"
        },
        {
            "bufferView" : 3,
            "componentType" : 5123,
            "count" : 124800,
            "type" : "SCALAR"
        },
        {
            "bufferView" : 4,
            "componentType" : 5126,
            "count" : 192,
            "max" : [
                0.8145536780357361,
                0.23253677785396576,
                0.5631793737411499
            ],
            "min" : [
                0.613520085811615,
                -0.28176701068878174,
                -0.46263739466667175
            ],
            "type" : "VEC3"
        },
        {
            "bufferView" : 5,
            "componentType" : 5126,
            "count" : 192,
            "type" : "VEC2"
        },
        {
            "bufferView" : 6,
            "componentType" : 5126,
            "count" : 192,
            "type" : "VEC3"
        },
        {
            "bufferView" : 7,
            "componentType" : 5123,
            "count" : 1026,
            "type" : "SCALAR"
        },
        {
            "bufferView" : 8,
            "componentType" : 5126,
            "count" : 137,
            "max" : [
                0.6722254753112793,
                0.09948914498090744,
                0.43599438667297363
            ],
            "min" : [
                0.07445517927408218,
                -0.2772005796432495,
                -0.396899551153183
            ],
            "type" : "VEC3"
        },
        {
            "bufferView" : 9,
            "componentType" : 5126,
            "count" : 137,
            "type" : "VEC2"
        },
        {
            "bufferView" : 10,
            "componentType" : 5126,
            "count" : 137,
            "type" : "VEC3"
        },
        {
            "bufferView" : 11,
            "componentType" : 5123,
            "count" : 699,
            "type" : "SCALAR"
        },
        {
            "bufferView" : 12,
            "componentType" : 5126,
            "count" : 192,
            "max" : [
                -0.613520085811615,
                0.23253682255744934,
                0.5631793737411499
            ],
            "min" : [
                -0.8145536780357361,
                -0.2817666530609131,
                -0.46263745427131653
            ],
            "type" : "VEC3"
        },
        {
            "bufferView" : 13,
            "componentType" : 5126,
            "count" : 192,
            "type" : "VEC2"
        },
        {
            "bufferView" : 14,
            "componentType" : 5126,
            "count" : 192,
            "type" : "VEC3"
        },
        {
            "bufferView" : 15,
            "componentType" : 5123,
            "count" : 1026,
            "type" : "SCALAR"
        },
        {
            "bufferView" : 16,
            "componentType" : 5126,
            "count" : 137,
            "max" : [
                -0.06335321068763733,
                0.09948914498090744,
                0.4359944462776184
            ],
            "min" : [
                -0.6611236333847046,
                -0.277200311422348,
                -0.396899551153183
            ],
            "type" : "VEC3"
        },
        {
            "bufferView" : 17,
            "componentType" : 5126,
            "count" : 137,
            "type" : "VEC2"
        },
        {
            "bufferView" : 18,
            "componentType" : 5126,
            "count" : 137,
            "type" : "VEC3"
        },
        {
            "bufferView" : 19,
            "componentType" : 5123,
            "count" : 699,
            "type" : "SCALAR"
        },
        {
            "bufferView" : 20,
            "componentType" : 5126,
            "count" : 1,
            "max" : [
                0.8333333333333334
            ],
            "min" : [
                0.8333333333333334
            ],
            "type" : "SCALAR"
        },
        {
            "bufferView" : 21,
            "componentType" : 5126,
            "count" : 1,
            "type" : "VEC3"
        },
        {
            "bufferView" : 22,
            "componentType" : 5126,
            "count" : 20,
            "max" : [
                0.8333333333333334
            ],
            "min" : [
                0.041666666666666664
            ],
            "type" : "SCALAR"
        },
        {
            "bufferView" : 23,
            "componentType" : 5126,
            "count" : 20,
            "type" : "VEC4"
        },
        {
            "bufferView" : 24,
            "componentType" : 5126,
            "count" : 30,
            "max" : [
                1.25
            ],
            "min" : [
                0.041666666666666664
            ],
            "type" : "SCALAR"
        },
        {
            "bufferView" : 25,
            "componentType" : 5126,
            "count" : 30,
            "type" : "VEC4"
        },
        {
            "bufferView" : 26,
            "componentType" : 5126,
            "count" : 20,
            "type" : "VEC4"
        },
        {
            "bufferView" : 27,
            "componentType" : 5126,
            "count" : 30,
            "type" : "VEC4"
        }
    ],
    "bufferViews" : [
        {
            "buffer" : 0,
            "byteLength" : 271848,
            "byteOffset" : 0,
            "target" : 34962
        },
        {
            "buffer" : 0,
            "byteLength" : 181232,
            "byteOffset" : 271848,
            "target" : 34962
        },
        {
            "buffer" : 0,
            "byteLength" : 271848,
            "byteOffset" : 453080,
            "target" : 34962
        },
        {
            "buffer" : 0,
            "byteLength" : 249600,
            "byteOffset" : 724928,
            "target" : 34963
        },
        {
            "buffer" : 0,
            "byteLength" : 2304,
            "byteOffset" : 974528,
            "target" : 34962
        },
        {
            "buffer" : 0,
            "byteLength" : 1536,
            "byteOffset" : 976832,
            "target" : 34962
        },
        {
            "buffer" : 0,
            "byteLength" : 2304,
            "byteOffset" : 978368,
            "target" : 34962
        },
        {
            "buffer" : 0,
            "byteLength" : 2052,
            "byteOffset" : 980672,
            "target" : 34963
        },
        {
            "buffer" : 0,
            "byteLength" : 1644,
            "byteOffset" : 982724,
            "target" : 34962
        },
        {
            "buffer" : 0,
            "byteLength" : 1096,
            "byteOffset" : 984368,
            "target" : 34962
        },
        {
            "buffer" : 0,
            "byteLength" : 1644,
            "byteOffset" : 985464,
            "target" : 34962
        },
        {
            "buffer" : 0,
            "byteLength" : 1398,
            "byteOffset" : 987108,
            "target" : 34963
        },
        {
            "buffer" : 0,
            "byteLength" : 2304,
            "byteOffset" : 988508,
            "target" : 34962
        },
        {
            "buffer" : 0,
            "byteLength" : 1536,
            "byteOffset" : 990812,
            "target" : 34962
        },
        {
            "buffer" : 0,
            "byteLength" : 2304,
            "byteOffset" : 992348,
            "target" : 34962
        },
        {
            "buffer" : 0,
            "byteLength" : 2052,
            "byteOffset" : 994652,
            "target" : 34963
        },
        {
            "buffer" : 0,
            "byteLength" : 1644,
            "byteOffset" : 996704,
            "target" : 34962
        },
        {
            "buffer" : 0,
            "byteLength" : 1096,
            "byteOffset" : 998348,
            "target" : 34962
        },
        {
            "buffer" : 0,
            "byteLength" : 1644,
            "byteOffset" : 999444,
            "target" : 34962
        },
        {
            "buffer" : 0,
            "byteLength" : 1398,
            "byteOffset" : 1001088,
            "target" : 34963
        },
        {
            "buffer" : 0,
            "byteLength" : 4,
            "byteOffset" : 1002488
        },
        {
            "buffer" : 0,
            "byteLength" : 12,
            "byteOffset" : 1002492
        },
        {
            "buffer" : 0,
            "byteLength" : 80,
            "byteOffset" : 1002504
        },
        {
            "buffer" : 0,
            "byteLength" : 320,
            "byteOffset" : 1002584
        },
        {
            "buffer" : 0,
            "byteLength" : 120,
            "byteOffset" : 1002904
        },
        {
            "buffer" : 0,
            "byteLength" : 480,
            "byteOffset" : 1003024
        },
        {
            "buffer" : 0,
            "byteLength" : 320,
            "byteOffset" : 1003504
        },
        {
            "buffer" : 0,
            "byteLength" : 480,
            "byteOffset" : 1003824
        }
    ],
    "buffers" : [
        {
            "byteLength" : 1004304,
            "uri" : "data:application/octet-stream;base64,"
        }
    ]
}
